<svg width="19" height="18" viewBox="0 0 19 18" fill="none" xmlns="http://www.w3.org/2000/svg">
<path d="M12.8897 14.184L14.647 13.5678L14.9875 11.9612C15.008 11.88 15.0508 11.806 15.1109 11.7477C15.171 11.6894 15.2462 11.649 15.328 11.6311C15.4098 11.6174 15.4938 11.6278 15.5698 11.661C15.6459 11.6942 15.7107 11.7488 15.7563 11.8182L16.6899 13.2267L18.5241 13.0176C18.6051 13.0061 18.6877 13.02 18.7605 13.0574C18.8332 13.0949 18.8926 13.154 18.9305 13.2267C18.9758 13.2952 19 13.3756 19 13.4578C19 13.54 18.9758 13.6203 18.9305 13.6889L17.8321 15.0863L18.59 16.6929C18.6234 16.7684 18.6349 16.8517 18.6232 16.9335C18.6116 17.0152 18.5772 17.092 18.5241 17.1551C18.4687 17.2167 18.3967 17.2609 18.3168 17.2823C18.2369 17.3038 18.1525 17.3017 18.0738 17.2761L16.3274 16.6929L15.1193 17.8813C15.0586 17.9382 14.983 17.9767 14.9014 17.9923C14.8197 18.0078 14.7353 17.9999 14.658 17.9694C14.582 17.9351 14.5176 17.8794 14.4727 17.809C14.4279 17.7387 14.4045 17.6567 14.4054 17.5732V15.9116L12.8128 14.9433C12.7433 14.9027 12.6875 14.8423 12.6523 14.7698C12.6171 14.6973 12.6042 14.616 12.6151 14.5362C12.6216 14.457 12.6511 14.3815 12.6999 14.319C12.7487 14.2564 12.8147 14.2095 12.8897 14.184V14.184Z" fill="#3C3C3B"/>
<path d="M0.324882 8.09885L7.2992 15.0753C7.40149 15.1801 7.52365 15.2634 7.65851 15.3202C7.79336 15.3771 7.9382 15.4064 8.0845 15.4064C8.23081 15.4064 8.37565 15.3771 8.5105 15.3202C8.64536 15.2634 8.76751 15.1801 8.8698 15.0753L9.18831 14.7672C9.29292 14.6647 9.37604 14.5423 9.43279 14.4072C9.48954 14.2721 9.51876 14.127 9.51876 13.9804C9.51876 13.8338 9.48954 13.6887 9.43279 13.5536C9.37604 13.4185 9.29292 13.2961 9.18831 13.1936L2.20301 6.21719C2.10072 6.11238 1.97856 6.0291 1.84371 5.97225C1.70885 5.9154 1.56402 5.88611 1.41771 5.88611C1.2714 5.88611 1.12657 5.9154 0.991714 5.97225C0.856859 6.0291 0.734697 6.11238 0.63241 6.21719L0.324882 6.5363C0.221938 6.63859 0.140226 6.7603 0.0844654 6.89439C0.0287052 7.02848 0 7.17231 0 7.31757C0 7.46284 0.0287052 7.60666 0.0844654 7.74075C0.140226 7.87485 0.221938 7.99655 0.324882 8.09885V8.09885Z" fill="#3C3C3B"/>
<path d="M1.55507 2.21179L10.8578 11.5101C10.9601 11.6149 11.0823 11.6981 11.2171 11.755C11.352 11.8118 11.4968 11.8411 11.6431 11.8411C11.7894 11.8411 11.9343 11.8118 12.0691 11.755C12.204 11.6981 12.3261 11.6149 12.4284 11.5101L12.7469 11.1909C12.8499 11.0886 12.9316 10.9669 12.9873 10.8328C13.0431 10.6988 13.0718 10.5549 13.0718 10.4097C13.0718 10.2644 13.0431 10.1206 12.9873 9.98648C12.9316 9.85239 12.8499 9.73069 12.7469 9.62839L3.4332 0.31913C3.33057 0.217145 3.20885 0.136459 3.07504 0.0816992C2.94122 0.0269389 2.79794 -0.000818884 2.65339 1.83918e-05C2.50884 -0.000818884 2.36555 0.0269389 2.23173 0.0816992C2.09792 0.136459 1.9762 0.217145 1.87358 0.31913L1.55507 0.638242C1.45046 0.740722 1.36734 0.86311 1.31059 0.998219C1.25384 1.13333 1.22461 1.27843 1.22461 1.42502C1.22461 1.5716 1.25384 1.71671 1.31059 1.85182C1.36734 1.98693 1.45046 2.10931 1.55507 2.21179V2.21179Z" fill="#3C3C3B"/>
<path d="M10.1548 3.69737L14.4163 7.95586C14.5186 8.06067 14.6408 8.14395 14.7756 8.2008C14.9105 8.25766 15.0553 8.28695 15.2016 8.28695C15.3479 8.28695 15.4928 8.25766 15.6276 8.2008C15.7625 8.14395 15.8846 8.06067 15.9869 7.95586L16.2944 7.63675C16.3974 7.53446 16.4791 7.41275 16.5348 7.27866C16.5906 7.14457 16.6193 7.00074 16.6193 6.85548C16.6193 6.71022 16.5906 6.56639 16.5348 6.4323C16.4791 6.2982 16.3974 6.1765 16.2944 6.07421L12.033 1.80471C11.9307 1.6999 11.8085 1.61663 11.6737 1.55977C11.5388 1.50292 11.394 1.47363 11.2477 1.47363C11.1014 1.47363 10.9565 1.50292 10.8217 1.55977C10.6868 1.61663 10.5647 1.6999 10.4624 1.80471L10.1439 2.12382C10.04 2.22703 9.95769 2.35 9.90188 2.48551C9.84608 2.62102 9.81785 2.76633 9.81887 2.91291C9.8199 3.0595 9.85015 3.2044 9.90784 3.33911C9.96553 3.47382 10.0495 3.59563 10.1548 3.69737V3.69737Z" fill="#3C3C3B"/>
</svg>
